<svg xmlns="http://www.w3.org/2000/svg" width="256" height="256" viewBox="0 0 100 100"><rect width="100" height="100" rx="20" fill="#d0021b"></rect><path d="M49.08 65.18L49.08 65.18Q53.23 65.18 55.21 63.46Q57.19 61.75 57.19 59.04L57.19 59.04Q57.19 56.67 55.68 55.21Q54.16 53.76 50.86 52.77L50.86 52.77L45.91 51.25Q43.60 50.53 41.72 49.57Q39.84 48.61 38.52 47.33Q37.20 46.04 36.50 44.29Q35.81 42.54 35.81 40.23L35.81 40.23Q35.81 35.02 39.67 32.01Q43.53 29.01 50.13 29.01L50.13 29.01Q52.84 29.01 55.15 29.44Q57.46 29.87 59.14 30.63Q60.82 31.39 61.78 32.41Q62.74 33.43 62.74 34.62L62.74 34.62Q62.74 35.74 62.18 36.57Q61.62 37.39 60.82 37.92L60.82 37.92Q59.17 36.67 56.50 35.78Q53.83 34.89 50.59 34.89L50.59 34.89Q46.96 34.89 44.98 36.34Q43.00 37.79 43.00 40.23L43.00 40.23Q43.00 42.21 44.39 43.43Q45.78 44.65 48.94 45.58L48.94 45.58L52.77 46.70Q58.32 48.35 61.39 51.22Q64.45 54.09 64.45 59.04L64.45 59.04Q64.45 61.68 63.43 63.89Q62.41 66.10 60.49 67.69Q58.58 69.27 55.71 70.13Q52.84 70.99 49.21 70.99L49.21 70.99Q46.17 70.99 43.66 70.46Q41.16 69.93 39.34 69.07Q37.53 68.22 36.54 67.09Q35.55 65.97 35.55 64.72L35.55 64.72Q35.55 63.40 36.34 62.47Q37.13 61.55 38.19 61.09L38.19 61.09Q39.77 62.54 42.51 63.86Q45.25 65.18 49.08 65.18Z" fill="#fff"></path></svg>